<?xml version="1.0" encoding="UTF-8"?>
<svg width="24px" height="23px" viewBox="0 0 24 23" version="1.1" xmlns="http://www.w3.org/2000/svg" xmlns:xlink="http://www.w3.org/1999/xlink">
    <!-- Generator: Sketch 51.3 (57544) - http://www.bohemiancoding.com/sketch -->
    <title>Shape</title>
    <desc>Created with Sketch.</desc>
    <defs></defs>
    <g id="Page-1" stroke="none" stroke-width="1" fill="none" fill-rule="evenodd">
        <g id="home" transform="translate(-801.000000, -553.000000)" fill="#EEEEEE" fill-rule="nonzero" stroke="#FFA933">
            <g id="landing-screen" transform="translate(0.000000, 71.000000)">
                <g id="landing__marquee" transform="translate(572.000000, 349.000000)">
                    <g id="landing__marquee--sub" transform="translate(7.000000, 126.000000)">
                        <g id="social-media" transform="translate(179.000000, 7.000000)">
                            <g id="instagram" transform="translate(43.692308, 0.000000)">
                                <path d="M11.3076923,0.5 C8.4858348,0.5 8.00581526,0.507932748 6.66994239,0.568431033 C5.59987276,0.619523432 4.81928792,0.778799089 4.08461302,1.06887658 C3.36975602,1.35083655 2.8078508,1.71770824 2.25432947,2.28064321 C1.69873859,2.84568291 1.33697953,3.41823994 1.06077473,4.14582016 C0.773989575,4.89707194 0.616754813,5.69303914 0.5673159,6.78214613 C0.50722764,8.08582975 0.5,8.55434036 0.5,11.5 C0.5,14.3701943 0.507805664,14.858726 0.56731341,16.2177999 C0.617684597,17.3080991 0.774934866,18.1054043 1.06076102,18.8541439 C1.33913993,19.5832068 1.70093687,20.1565528 2.25406642,20.7190895 C2.81017384,21.2838066 3.37259072,21.651553 4.08403552,21.9308961 C4.8246365,22.2219484 5.60456268,22.381509 6.66990521,22.4315672 C7.95131746,22.4926549 8.4116497,22.5 11.3076923,22.5 C14.1295498,22.5 14.6095694,22.4920673 15.9454236,22.4315699 C17.0128458,22.380564 17.794237,22.2209559 18.5305702,21.9312029 C19.2441896,21.6493739 19.8074186,21.2815646 20.3607923,20.7196243 C20.9171948,20.1529095 21.2792914,19.5803422 21.55441,18.8547042 C21.8411597,18.1010078 21.9987137,17.3042618 22.0480687,16.2178539 C22.108157,14.9141702 22.1153846,14.4456596 22.1153846,11.5 C22.1153846,8.62980574 22.107579,8.14127396 22.0480712,6.7822001 C21.9977817,5.69366868 21.8401854,4.89544978 21.5545483,4.14565873 C21.2771533,3.41825076 20.9149828,2.84483748 20.3610551,2.28064321 C19.8053356,1.71547264 19.2442322,1.34865798 18.5306068,1.06881155 C17.7944903,0.778164838 17.0133614,0.618610331 15.9454794,0.568432807 C14.6640672,0.507345074 14.2037349,0.5 11.3076923,0.5 Z M11.4612267,1.57000883 C14.0774198,1.57031975 14.5561786,1.57911038 15.9017614,1.63861209 C16.8922769,1.68596667 17.5590618,1.83026367 18.1591617,2.07034742 C18.7510309,2.30276714 19.1854022,2.58966207 19.6356124,3.04428191 C20.080105,3.49741288 20.3620942,3.93900203 20.5900419,4.53939841 C20.8269935,5.15948476 20.9670808,5.82902197 21.0116646,6.8299696 C21.0708324,8.16646709 21.0781154,8.63318806 21.0781154,11.5 C21.0781154,14.3376035 21.0701808,14.8118894 21.0077289,16.1735155 C20.9563372,17.1759881 20.8139469,17.8487993 20.5771985,18.4645697 C20.3397622,19.0704117 20.0612794,19.5072657 19.6210602,19.9571015 C19.1800902,20.4055711 18.7408644,20.6948597 18.1486936,20.9299072 C17.544466,21.1698563 16.869946,21.3149149 15.8808236,21.3604832 C14.5563476,21.4207493 14.1015979,21.4280833 11.2794231,21.4280833 C8.48542699,21.4280833 8.02433322,21.4201095 6.67429802,21.3564665 C5.68300113,21.3039494 5.00537401,21.1565987 4.40790732,20.9178877 C3.80793467,20.6776777 3.38110532,20.3946619 2.93862151,19.9435743 C2.48753637,19.486997 2.19794043,19.0372793 1.97981978,18.4498355 C1.74683452,17.8466961 1.6026686,17.1589778 1.55076956,16.1453394 C1.53459467,15.6847404 1.53090132,15.5763816 1.5249878,15.3782943 C1.50034298,14.5527571 1.49298077,13.709113 1.49298077,11.485625 C1.49298077,9.26906218 1.50030147,8.42279176 1.5247208,7.59384098 C1.53066928,7.39191095 1.53424739,7.2857071 1.55111727,6.80156783 C1.60265973,5.79615359 1.74667386,5.10963646 1.97612662,4.51594999 C2.19242214,3.91887769 2.47616836,3.48169999 2.93778592,3.01223179 C3.39869778,2.54348129 3.83088917,2.25343352 4.40727112,2.03828417 C5.00866834,1.79654665 5.67111021,1.6510333 6.66867976,1.59907179 C7.12177151,1.58280835 7.24164324,1.57864492 7.44173455,1.57260405 C8.24543268,1.54833992 9.06678168,1.54125 11.2652885,1.54125 L11.4188098,1.54125 L11.4612267,1.57000883 Z M11.3076923,6.09475 C8.37819649,6.09475 6.00119231,8.51299255 6.00119231,11.5 C6.00119231,14.4878226 8.378994,16.90525 11.3076923,16.90525 C14.2371881,16.90525 16.6141923,14.4870074 16.6141923,11.5 C16.6141923,8.51217737 14.2363906,6.09475 11.3076923,6.09475 Z M11.3076923,15.8333333 C8.94714498,15.8333333 7.03846154,13.8921893 7.03846154,11.5 C7.03846154,9.10781071 8.94714498,7.16666667 11.3076923,7.16666667 C13.6682396,7.16666667 15.5769231,9.10781071 15.5769231,11.5 C15.5769231,13.8921893 13.6682396,15.8333333 11.3076923,15.8333333 Z M18.2010385,5.361875 C18.2010385,4.87562702 17.8138502,4.48223132 17.3441154,4.48283333 C16.8736816,4.48283333 16.4871923,4.87551873 16.4871923,5.361875 C16.4871923,5.84890262 16.873408,6.241875 17.3441154,6.241875 C17.8146404,6.241875 18.2010385,5.84909393 18.2010385,5.361875 Z" id="Shape"></path>
                            </g>
                        </g>
                    </g>
                </g>
            </g>
        </g>
    </g>
</svg>