<?xml version="1.0" encoding="UTF-8"?>
<svg width="23px" height="20px" viewBox="0 0 23 20" version="1.1" xmlns="http://www.w3.org/2000/svg" xmlns:xlink="http://www.w3.org/1999/xlink">
    <!-- Generator: Sketch 51.3 (57544) - http://www.bohemiancoding.com/sketch -->
    <title>Shape</title>
    <desc>Created with Sketch.</desc>
    <defs></defs>
    <g id="Page-1" stroke="none" stroke-width="1" fill="none" fill-rule="evenodd">
        <g id="home" transform="translate(-839.000000, -555.000000)" fill="#1DA1F2" fill-rule="nonzero">
            <g id="landing-screen" transform="translate(0.000000, 71.000000)">
                <g id="landing__marquee" transform="translate(572.000000, 349.000000)">
                    <g id="landing__marquee--sub" transform="translate(7.000000, 126.000000)">
                        <g id="social-media" transform="translate(179.000000, 7.000000)">
                            <g id="twitter" transform="translate(81.384615, 2.300000)">
                                <path d="M22.3914622,2.46195833 C21.5641914,2.83475 20.6808345,3.08870833 19.7507391,3.20466667 C20.6985951,2.619125 21.4277151,1.69625 21.7726449,0.595125 C20.8836794,1.127 19.8984326,1.51416667 18.8496215,1.72979167 C18.0120683,0.81075 16.818368,0.23575 15.4928652,0.23575 C12.9530972,0.23575 10.8938006,2.34695833 10.8938006,4.947875 C10.8938006,5.321625 10.9358652,5.681 11.0125163,6.02504167 C7.18931015,5.84008333 3.80077169,3.95791667 1.53302154,1.112625 C1.13387508,1.80454167 0.910465231,2.60858333 0.910465231,3.4845 C0.910465231,5.12325 1.72371446,6.563625 2.95574031,7.40983333 C2.20138154,7.38491667 1.49189169,7.17216667 0.873074462,6.8195 L0.873074462,6.87795833 C0.873074462,9.16358333 2.45563877,11.0697083 4.56167385,11.5038333 C4.17561415,11.6102083 3.76805477,11.6677083 3.35021292,11.6677083 C3.05669538,11.6677083 2.77532985,11.6389583 2.49396431,11.5852917 C3.08380369,13.4569167 4.77947508,14.8215833 6.79764185,14.8599167 C5.22722954,16.1239583 3.23710585,16.8772083 1.09368,16.8772083 C0.72912,16.8772083 0.365494769,16.8551667 0,16.813 C2.04620985,18.1489167 4.45697969,18.9299583 7.06405108,18.9299583 C15.5274517,18.9299583 20.1498855,11.7462917 20.1498855,5.52670833 C20.1498855,5.32641667 20.1498855,5.12420833 20.135864,4.92295833 C21.0341772,4.26266667 21.8184486,3.42795833 22.4353963,2.481125 L22.3914622,2.46195833 Z" id="Shape"></path>
                            </g>
                        </g>
                    </g>
                </g>
            </g>
        </g>
    </g>
</svg>