<?xml version="1.0" encoding="UTF-8"?>
<svg width="28px" height="20px" viewBox="0 0 28 20" version="1.1" xmlns="http://www.w3.org/2000/svg" xmlns:xlink="http://www.w3.org/1999/xlink">
    <!-- Generator: Sketch 51.3 (57544) - http://www.bohemiancoding.com/sketch -->
    <title>Shape</title>
    <desc>Created with Sketch.</desc>
    <defs></defs>
    <g id="Page-1" stroke="none" stroke-width="1" fill="none" fill-rule="evenodd">
        <g id="home" transform="translate(-758.000000, -555.000000)" fill="#ED2B4F" fill-rule="nonzero">
            <g id="landing-screen" transform="translate(0.000000, 71.000000)">
                <g id="landing__marquee" transform="translate(572.000000, 349.000000)">
                    <g id="landing__marquee--sub" transform="translate(7.000000, 126.000000)">
                        <g id="social-media" transform="translate(179.000000, 7.000000)">
                            <g id="youtube" transform="translate(0.000000, 2.000000)">
                                <path d="M27.4154384,3.08822329 C27.0853719,1.87948902 26.1612061,0.934958604 24.9785329,0.597618849 C22.7960554,1.69217476e-05 14.0124584,1.69217476e-05 14.0124584,1.69217476e-05 C14.0124584,1.69217476e-05 5.25103638,-0.0119112604 3.0463839,0.597618849 C1.86371069,0.934958604 0.939544945,1.87948902 0.609478447,3.08822329 C0.195765422,5.37188636 -0.0081970815,7.69007159 0.000252084814,10.0125331 C-0.00659980803,12.3262309 0.19735601,14.6355549 0.609478447,16.9106008 C0.939544945,18.1193351 1.86371069,19.0638655 3.0463839,19.4012053 C5.22652728,20 14.0124584,20 14.0124584,20 C14.0124584,20 22.7727133,20 24.9785329,19.4012053 C26.1612061,19.0638655 27.0853719,18.1193351 27.4154384,16.9106008 C27.8189508,14.6347308 28.0143102,12.3254135 27.9989885,10.0125331 C28.0159073,7.69089201 27.8205415,5.37271348 27.4154384,3.08822329 Z M11.2090835,14.2959433 L11.2090835,5.71600183 L18.5197998,10.0125331 L11.2090835,14.2959433 Z" id="Shape"></path>
                            </g>
                        </g>
                    </g>
                </g>
            </g>
        </g>
    </g>
</svg>